<?xml version="1.0" encoding="UTF-8"?>
<svg version="1.1" xmlns="http://www.w3.org/2000/svg" width="216" height="206">
<path d="M0 0 C71.28 0 142.56 0 216 0 C216 67.98 216 135.96 216 206 C144.72 206 73.44 206 0 206 C0 138.02 0 70.04 0 0 Z " fill="#FAFBFD" transform="translate(0,0)"/>
<path d="M0 0 C71.28 0 142.56 0 216 0 C216 67.98 216 135.96 216 206 C144.72 206 73.44 206 0 206 C0 138.02 0 70.04 0 0 Z M20 14 C17.10634045 35.43555566 16.84618226 56.82141335 16.8671875 78.42578125 C16.8665116 80.91334543 16.8655392 83.40090955 16.86428833 85.88847351 C16.86282619 91.06278115 16.86491857 96.23707136 16.86962891 101.41137695 C16.87534031 108.00182887 16.87202876 114.59224017 16.86605644 121.18269062 C16.86242328 126.30543823 16.86360177 131.42817639 16.86618423 136.5509243 C16.86684512 138.97990105 16.86605487 141.40887869 16.86370468 143.83785439 C16.48717524 168.09656427 16.48717524 168.09656427 20 192 C20.95777344 192.05534912 21.91554688 192.11069824 22.90234375 192.16772461 C26.48827802 192.37566215 30.07399865 192.58710719 33.65966797 192.79956055 C35.20551112 192.89067273 36.75140911 192.98085974 38.29736328 193.07006836 C40.53172965 193.19916829 42.76587136 193.33170019 45 193.46484375 C45.68054443 193.50343002 46.36108887 193.5420163 47.06225586 193.58177185 C50.2980754 193.77769138 53.47703852 194.06587938 56.68927002 194.50949097 C61.10672936 195.06965255 65.46083675 195.14782353 69.90917969 195.14526367 C70.7627002 195.14862228 71.6162207 195.1519809 72.49560547 195.15544128 C75.30437707 195.16489737 78.11308848 195.16689315 80.921875 195.16796875 C82.90602644 195.17119008 84.89017765 195.17455478 86.87432861 195.17805481 C91.04024808 195.18403645 95.20614686 195.18589621 99.37207031 195.18530273 C103.58826042 195.18522214 107.80434035 195.19205645 112.02050781 195.20581055 C134.07711685 195.27675842 156.00085626 195.31145384 177.9810791 193.26699829 C183.64795348 192.76581067 189.32458343 192.39034951 195 192 C196.23793804 184.14189406 196.37596249 176.30956791 196.5625 168.375 C196.58334656 167.52030121 196.60419312 166.66560242 196.62567139 165.78500366 C197.63292516 122.90581235 197.65663309 79.86036533 196 37 C195.9572998 35.8042334 195.91459961 34.6084668 195.87060547 33.37646484 C195.75506866 30.16726006 195.63105533 26.95860503 195.5 23.75 C195.44694702 22.41594116 195.44694702 22.41594116 195.39282227 21.05493164 C195.28985443 16.89282055 195.28985443 16.89282055 194 13 C166.80807143 12.05458207 139.63713722 11.84136931 112.43017578 11.86962891 C106.83345699 11.87536776 101.2367853 11.87190789 95.64006805 11.86619186 C57.77433535 11.70099418 57.77433535 11.70099418 20 14 Z " fill="#5896CF" transform="translate(0,0)"/>
<path d="M0 0 C71.28 0 142.56 0 216 0 C216 67.98 216 135.96 216 206 C144.72 206 73.44 206 0 206 C0 138.02 0 70.04 0 0 Z M34 4 C32.16980003 4.13352982 30.33739875 4.24046277 28.50390625 4.31640625 C27.04887695 4.37924805 27.04887695 4.37924805 25.56445312 4.44335938 C24.07848633 4.50233398 24.07848633 4.50233398 22.5625 4.5625 C21.54478516 4.60568359 20.52707031 4.64886719 19.47851562 4.69335938 C16.98578972 4.79868582 14.49297662 4.90081672 12 5 C9.52833637 9.83605802 9.55669085 14.58322049 9.38549805 19.89672852 C9.34797015 20.90176957 9.31044226 21.90681063 9.27177715 22.94230747 C8.83879238 35.80376423 8.83519156 48.67133511 8.83274293 61.53867793 C8.83201991 63.68602605 8.82986276 65.8333682 8.82724571 67.9807148 C8.81806147 75.53898637 8.81390189 83.09724061 8.81469727 90.65551758 C8.81529569 97.59283218 8.80477205 104.53006845 8.7889536 111.4673633 C8.7756814 117.51329137 8.77052145 123.55919448 8.77115268 129.60513693 C8.77140205 133.17618281 8.76887535 136.74715887 8.75797462 140.31818962 C8.70107479 160.29764302 9.52634923 180.0814436 11 200 C13.51549233 200.16690543 16.03111369 200.33113754 18.546875 200.49389648 C19.24925293 200.54077354 19.95163086 200.5876506 20.67529297 200.63594818 C27.45257708 201.07064314 34.20984432 201.11394057 41 201.0625 C42.16789062 201.05798828 43.33578125 201.05347656 44.5390625 201.04882812 C47.35943413 201.03726922 50.17968558 201.02098448 53 201 C53 201.66 53 202.32 53 203 C66.71875146 203.04663814 80.43748361 203.08202746 94.15629864 203.10362434 C100.52862566 203.11399729 106.90089787 203.12803582 113.27319336 203.15087891 C119.43944133 203.17284138 125.60563705 203.18461721 131.77192116 203.18975449 C134.10745883 203.19340873 136.44299412 203.20054239 138.77850914 203.21146011 C152.61727394 203.27349313 166.17270231 202.76339751 179.92744637 201.21521568 C184.35669985 200.75527834 188.80146341 200.58949167 193.25 200.4375 C198.5376684 200.72641995 198.5376684 200.72641995 203 199 C204.34982549 189.81368764 204.32474287 180.40848518 204.60546875 171.14453125 C204.64285156 170.03722656 204.68023437 168.92992187 204.71875 167.7890625 C204.74904297 166.79600098 204.77933594 165.80293945 204.81054688 164.77978516 C205 162 205 162 205.48291016 159.74169922 C206.25819823 155.63098859 206.37609609 151.51797027 206.5546875 147.34375 C206.61775589 145.8979657 206.61775589 145.8979657 206.68209839 144.42297363 C207.15856228 132.45075718 207.15070592 120.47978604 207.125 108.5 C207.12411377 107.30318604 207.12322754 106.10637207 207.12231445 104.87329102 C207.10166618 80.90700387 206.65961004 56.95647544 206 33 C205.34 33 204.68 33 204 33 C204.01571045 32.10075806 204.01571045 32.10075806 204.03173828 31.18334961 C204.07362837 28.4347767 204.09943003 25.68627126 204.125 22.9375 C204.15013672 21.52307617 204.15013672 21.52307617 204.17578125 20.08007812 C204.18544922 18.69272461 204.18544922 18.69272461 204.1953125 17.27734375 C204.21102295 16.01265259 204.21102295 16.01265259 204.22705078 14.72241211 C203.94320531 11.3190133 202.96746402 8.2678828 202 5 C166.55279808 3.38432129 131.18644556 2.70220355 95.70410156 2.80438232 C90.82713858 2.81544365 85.95020222 2.81484362 81.07322884 2.81424427 C76.32749648 2.81451543 71.58178213 2.81998078 66.83605576 2.82724571 C64.59780893 2.83040467 62.35956011 2.83239322 60.12131119 2.83313942 C57.03672985 2.8353073 53.95223785 2.84404808 50.86767578 2.85473633 C49.51550461 2.85405655 49.51550461 2.85405655 48.13601685 2.85336304 C43.32709165 2.8777287 38.75912608 3.2163115 34 4 Z " fill="#F1F2F3" transform="translate(0,0)"/>
<path d="M0 0 C9.9 0 19.8 0 30 0 C30.33 9.9 30.66 19.8 31 30 C45.85 30.495 45.85 30.495 61 31 C61 41.23 61 51.46 61 62 C51.1 62 41.2 62 31 62 C31 71.9 31 81.8 31 92 C20.11 92 9.22 92 -2 92 C-2 82.1 -2 72.2 -2 62 C-16.85 61.505 -16.85 61.505 -32 61 C-32 50.77 -32 40.54 -32 30 C-21.44 30 -10.88 30 0 30 C0 20.1 0 10.2 0 0 Z " fill="#FEFEFE" transform="translate(92,57)"/>
<path d="M0 0 C0 20.46 0 40.92 0 62 C9.9 62 19.8 62 30 62 C31 63 31 63 31.11352539 65.77563477 C31.10828857 66.98533936 31.10305176 68.19504395 31.09765625 69.44140625 C31.09443359 70.74658203 31.09121094 72.05175781 31.08789062 73.39648438 C31.07953401 74.7851569 31.07106905 76.17382877 31.0625 77.5625 C31.05748666 78.95507656 31.05292347 80.34765481 31.04882812 81.74023438 C31.03699434 85.1601987 31.0205088 88.58007844 31 92 C25.64315122 92.02470696 20.28633556 92.04286331 14.92944336 92.05493164 C13.10684634 92.0599624 11.28425335 92.06678769 9.46166992 92.07543945 C6.84292606 92.08755997 4.22423553 92.09324086 1.60546875 92.09765625 C0.38188911 92.10539818 0.38188911 92.10539818 -0.8664093 92.11329651 C-4.17013929 92.1136246 -6.84323138 92.05225621 -10 91 C-10 90.34 -10 89.68 -10 89 C-11.65 88.67 -13.3 88.34 -15 88 C-15 87.34 -15 86.68 -15 86 C-15.99 85.67 -16.98 85.34 -18 85 C-19.82421875 83.2578125 -19.82421875 83.2578125 -21.6875 81.125 C-22.62142578 80.07699219 -22.62142578 80.07699219 -23.57421875 79.0078125 C-25 77 -25 77 -25 74 C-25.66 74 -26.32 74 -27 74 C-28.97730555 68.21420422 -29.30691798 63.02676799 -29.30078125 56.9375 C-29.30506638 55.98738037 -29.3093515 55.03726074 -29.31376648 54.05834961 C-29.31948584 52.05811354 -29.32002778 50.05785669 -29.31567383 48.05761719 C-29.31250976 45.00940324 -29.33601744 41.96215701 -29.36132812 38.9140625 C-29.36360106 36.96354288 -29.36430464 35.01302067 -29.36328125 33.0625 C-29.372491 32.15814209 -29.38170074 31.25378418 -29.39118958 30.32202148 C-29.32428461 21.10828265 -25.94144222 14.94434551 -20 8 C-14.22375654 2.37987122 -7.94563236 0 0 0 Z " fill="#F289B7" transform="translate(60,56)"/>
<path d="M0 0 C9.57 0 19.14 0 29 0 C29.11537745 5.24839217 29.21472564 10.49231237 29.2746582 15.7409668 C29.29966208 17.52269472 29.33367707 19.30432153 29.37719727 21.08569336 C29.65054901 32.56968254 29.71805208 40.56466577 21.7890625 49.48828125 C10.50535332 59 10.50535332 59 5 59 C5 59.66 5 60.32 5 61 C-0.90402443 61.1496341 -6.80691716 61.25781681 -12.71240234 61.32958984 C-14.71617895 61.35954503 -16.71982691 61.40032476 -18.72314453 61.45263672 C-42.43461825 62.05577146 -42.43461825 62.05577146 -52.29785156 52.85693359 C-55.26701397 49.74276558 -57.20936149 47.28659434 -58 43 C-58.66 43 -59.32 43 -60 43 C-61 40 -61 40 -61 31 C-40.87 31 -20.74 31 0 31 C0 20.77 0 10.54 0 0 Z " fill="#5393CE" transform="translate(123,119)"/>
<path d="M0 0 C12.87 0 25.74 0 39 0 C39 0.66 39 1.32 39 2 C41.475 2.495 41.475 2.495 44 3 C44 3.66 44 4.32 44 5 C44.5878125 5.09152344 45.175625 5.18304688 45.78125 5.27734375 C51.14697601 7.02498338 54.81316748 13.27542609 57.375 18.0625 C60.53038988 24.3321225 60.13978793 31.58627135 60.09765625 38.43359375 C60.0962413 39.31153091 60.09482635 40.18946808 60.09336853 41.0940094 C60.08780821 43.87520882 60.07526321 46.65632526 60.0625 49.4375 C60.05747987 51.33268112 60.05291786 53.22786352 60.04882812 55.12304688 C60.0378518 59.74872948 60.02061482 64.37435071 60 69 C59.34 69 58.68 69 58 69 C57.89171875 69.73089844 57.7834375 70.46179688 57.671875 71.21484375 C56.13205605 77.59793044 51.49318376 83.49046593 46 87 C45.34 87 44.68 87 44 87 C44 87.66 44 88.32 44 89 C39.13112025 90.90005063 36.57710066 91 31 91 C31 70.54 31 50.08 31 29 C20.77 29 10.54 29 0 29 C0 19.43 0 9.86 0 0 Z " fill="#5393CE" transform="translate(123,58)"/>
<path d="M0 0 C0.98467255 0.00565979 1.96934509 0.01131958 2.9838562 0.01715088 C6.09132037 0.03932389 9.19757907 0.08948315 12.3046875 0.140625 C14.42706654 0.16071469 16.54946387 0.1789611 18.671875 0.1953125 C23.84160168 0.23912593 29.01044109 0.30801873 34.1796875 0.390625 C34.1796875 1.050625 34.1796875 1.710625 34.1796875 2.390625 C35.1903125 2.6175 36.2009375 2.844375 37.2421875 3.078125 C44.1369127 5.07396651 48.72248091 9.11643527 52.1796875 15.390625 C54.25598989 20.26993561 54.1796875 22.71484426 54.1796875 28.390625 C34.0496875 28.390625 13.9196875 28.390625 -6.8203125 28.390625 C-6.8203125 38.620625 -6.8203125 48.850625 -6.8203125 59.390625 C-16.0603125 59.390625 -25.3003125 59.390625 -34.8203125 59.390625 C-34.91276556 54.58820212 -34.99220432 49.78893604 -35.04003906 44.98632812 C-35.06000329 43.35698922 -35.0871848 41.72772055 -35.12207031 40.09863281 C-35.54460685 19.84173387 -35.54460685 19.84173387 -28.3828125 11.578125 C-27.5371875 10.85625 -26.6915625 10.134375 -25.8203125 9.390625 C-25.0984375 8.545 -24.3765625 7.699375 -23.6328125 6.828125 C-16.72215338 0.83888709 -8.85628039 -0.19603061 0 0 Z " fill="#F28AB8" transform="translate(96.8203125,26.609375)"/>
<path d="M0 0 C0.33 0 0.66 0 1 0 C1.41277905 29.34541547 1.41277905 29.34541547 -1 41 C-0.34 41 0.32 41 1 41 C1 43.64 1 46.28 1 49 C-66.98 49 -134.96 49 -205 49 C-205 46.36 -205 43.72 -205 41 C-201.7 41 -198.4 41 -195 41 C-195 36.38 -195 31.76 -195 27 C-194.67 27 -194.34 27 -194 27 C-194 32.28 -194 37.56 -194 43 C-190.844375 42.9690625 -190.844375 42.9690625 -187.625 42.9375 C-175.74220051 42.88430118 -163.86901056 43.48915431 -152 44 C-152 44.66 -152 45.32 -152 46 C-138.2811447 45.91507776 -124.56239916 45.82000087 -110.84370136 45.71247292 C-104.47142462 45.66283475 -98.09916192 45.61650586 -91.72680664 45.578125 C-85.56048441 45.54085689 -79.39428989 45.49439327 -73.22807884 45.44193649 C-70.89257264 45.42361036 -68.55703931 45.40842506 -66.22149086 45.39665604 C-52.40033058 45.32461312 -38.81474063 44.73865519 -25.07540131 43.21453857 C-20.62353773 42.75434012 -16.15796425 42.55278151 -11.6875 42.375 C-10.39875977 42.31699219 -10.39875977 42.31699219 -9.08398438 42.2578125 C-7.05619376 42.16718499 -5.0281261 42.08278066 -3 42 C-2.0358428 32.72115702 -1.6769788 23.46530035 -1.39453125 14.14453125 C-1.35714844 13.03722656 -1.31976563 11.92992187 -1.28125 10.7890625 C-1.25095703 9.79600098 -1.22066406 8.80293945 -1.18945312 7.77978516 C-1.00722393 5.10599441 -0.58918695 2.61138629 0 0 Z " fill="#EEF1F3" transform="translate(205,157)"/>
<path d="M0 0 C2.64 0 5.28 0 8 0 C8 13.86 8 27.72 8 42 C5.36 42 2.72 42 0 42 C0 28.14 0 14.28 0 0 Z " fill="#F0F0F0" transform="translate(0,101)"/>
<path d="M0 0 C2.64 0 5.28 0 8 0 C8 13.86 8 27.72 8 42 C5.36 42 2.72 42 0 42 C0 28.14 0 14.28 0 0 Z " fill="#F0F0F0" transform="translate(0,46)"/>
<path d="M0 0 C22.77 0 45.54 0 69 0 C69 1.65 69 3.3 69 5 C60.33723616 5.10072981 51.69826367 5.06633838 43.04281616 4.66746521 C23.4646801 3.77264742 3.87015114 3.66915376 -15.7244873 3.46777344 C-20.61973931 3.41668036 -25.51494484 3.3614625 -30.41015625 3.30664062 C-39.94006407 3.20049783 -49.47001301 3.09876109 -59 3 C-59 2.67 -59 2.34 -59 2 C-39.53 2 -20.06 2 0 2 C0 1.34 0 0.68 0 0 Z " fill="#CADBEB" transform="translate(124,0)"/>
<path d="M0 0 C7.59 0 15.18 0 23 0 C23 6.27 23 12.54 23 19 C20.03 19.33 17.06 19.66 14 20 C13.67 22.31 13.34 24.62 13 27 C12.67 27 12.34 27 12 27 C12.33 19.74 12.66 12.48 13 5 C8.71 5 4.42 5 0 5 C0 3.35 0 1.7 0 0 Z " fill="#FDFDFD" transform="translate(193,0)"/>
<path d="M0 0 C1.98 0 3.96 0 6 0 C6 20.46 6 40.92 6 62 C15.9 62 25.8 62 36 62 C37 63 37 63 37.11352539 65.77563477 C37.10828857 66.98533936 37.10305176 68.19504395 37.09765625 69.44140625 C37.09443359 70.74658203 37.09121094 72.05175781 37.08789062 73.39648438 C37.07953401 74.7851569 37.07106905 76.17382877 37.0625 77.5625 C37.05748666 78.95507656 37.05292347 80.34765481 37.04882812 81.74023438 C37.03699434 85.1601987 37.0205088 88.58007844 37 92 C31.64316151 92.04941382 26.2864555 92.08572607 20.92944336 92.10986328 C19.10682871 92.11992491 17.28423021 92.1335756 15.46166992 92.15087891 C12.84289565 92.17512021 10.22433469 92.18648138 7.60546875 92.1953125 C6.38188911 92.21079636 6.38188911 92.21079636 5.1335907 92.22659302 C1.22869244 92.2273686 -0.67524008 92.21650661 -4 90 C8.87 90 21.74 90 35 90 C35 81.42 35 72.84 35 64 C32.91816406 64.01160156 30.83632812 64.02320312 28.69140625 64.03515625 C26.68253702 64.04210735 24.67366749 64.04902389 22.66479492 64.05493164 C21.26504772 64.0599708 19.8653058 64.06680216 18.46557617 64.07543945 C16.45754223 64.0875232 14.44947043 64.09269807 12.44140625 64.09765625 C11.23170166 64.10289307 10.02199707 64.10812988 8.77563477 64.11352539 C6 64 6 64 5 63 C4.90603943 61.06693502 4.88256483 59.13041162 4.88647461 57.19506836 C4.88655014 55.95385727 4.88662567 54.71264618 4.88670349 53.43382263 C4.89181089 52.0691626 4.8970269 50.70450298 4.90234375 49.33984375 C4.904208 47.95121817 4.90563187 46.56259193 4.90663147 45.17396545 C4.91045613 41.51278885 4.92028597 37.8516517 4.93133545 34.19049072 C4.94155068 30.45707737 4.94612933 26.72365766 4.95117188 22.99023438 C4.96190829 15.66013823 4.97898409 8.33007464 5 1 C3.35 1 1.7 1 0 1 C0 0.67 0 0.34 0 0 Z " fill="#F7B6D3" transform="translate(54,56)"/>
<path d="M0 0 C1.32 0 2.64 0 4 0 C4 4.95 4 9.9 4 15 C4.33 14.67 4.66 14.34 5 14 C8.00331018 13.85806663 10.99217134 13.95763622 14 14 C14 18.62 14 23.24 14 28 C4.25 29.125 4.25 29.125 2 28 C1.97494385 27.40050537 1.9498877 26.80101074 1.92407227 26.18334961 C1.80714227 23.43456676 1.68486053 20.68604625 1.5625 17.9375 C1.50352539 16.52307617 1.50352539 16.52307617 1.44335938 15.08007812 C1.21274604 9.98884522 0.8300873 5.02935244 0 0 Z " fill="#EFEFEF" transform="translate(202,5)"/>
<path d="M0 0 C0.33 0 0.66 0 1 0 C1.41277905 29.34541547 1.41277905 29.34541547 -1 41 C-0.34 41 0.32 41 1 41 C1 43.64 1 46.28 1 49 C-3.29 49 -7.58 49 -12 49 C-12 47.68 -12 46.36 -12 45 C-20.25 45 -28.5 45 -37 45 C-37 44.67 -37 44.34 -37 44 C-20.17 43.01 -20.17 43.01 -3 42 C-2.17910138 33.1970505 -2.17910138 33.1970505 -1.71875 24.4140625 C-1.68136719 23.29902344 -1.64398438 22.18398437 -1.60546875 21.03515625 C-1.53443207 18.73830353 -1.46413418 16.44142786 -1.39453125 14.14453125 C-1.35714844 13.03722656 -1.31976563 11.92992187 -1.28125 10.7890625 C-1.25095703 9.79600098 -1.22066406 8.80293945 -1.18945312 7.77978516 C-1.00722393 5.10599441 -0.58918695 2.61138629 0 0 Z " fill="#DBE4ED" transform="translate(205,157)"/>
<path d="M0 0 C3.46679688 0.04882812 3.46679688 0.04882812 6.93359375 0.09765625 C6.93359375 4.71765625 6.93359375 9.33765625 6.93359375 14.09765625 C3.96359375 14.09765625 0.99359375 14.09765625 -2.06640625 14.09765625 C-2.06640625 17.39765625 -2.06640625 20.69765625 -2.06640625 24.09765625 C-2.39640625 24.09765625 -2.72640625 24.09765625 -3.06640625 24.09765625 C-3.09527861 20.28517199 -3.11316117 16.47271555 -3.12890625 12.66015625 C-3.13728516 11.57154297 -3.14566406 10.48292969 -3.15429688 9.36132812 C-3.15751953 8.32685547 -3.16074219 7.29238281 -3.1640625 6.2265625 C-3.16929932 5.2682251 -3.17453613 4.3098877 -3.17993164 3.32250977 C-3.03178558 0.41916553 -2.90378825 0.13723007 0 0 Z " fill="#FDFDFD" transform="translate(209.06640625,32.90234375)"/>
<path d="M0 0 C3.3 0 6.6 0 10 0 C10 4.62 10 9.24 10 14 C6.7 14 3.4 14 0 14 C0 9.38 0 4.76 0 0 Z " fill="#FEFEFE" transform="translate(0,184)"/>
<path d="M0 0 C2.97 0 5.94 0 9 0 C9 4.62 9 9.24 9 14 C6.03 14 3.06 14 0 14 C0 15.65 0 17.3 0 19 C-0.33 19 -0.66 19 -1 19 C-1.0272616 16.95840905 -1.04651345 14.91671037 -1.0625 12.875 C-1.07410156 11.73804688 -1.08570313 10.60109375 -1.09765625 9.4296875 C-1.005327 6.1870844 -0.61389906 3.18067388 0 0 Z " fill="#EDEEEF" transform="translate(207,129)"/>
<path d="M0 0 C2.97 0 5.94 0 9 0 C9 4.29 9 8.58 9 13 C6.03 13 3.06 13 0 13 C0 19.27 0 25.54 0 32 C-0.33 32 -0.66 32 -1 32 C-1.02949232 28.54168516 -1.0469616 25.08340346 -1.0625 21.625 C-1.07087891 20.65949219 -1.07925781 19.69398437 -1.08789062 18.69921875 C-1.10906282 12.38990581 -0.72764328 6.26804524 0 0 Z " fill="#EBEDEF" transform="translate(207,47)"/>
<path d="M0 0 C3.3 0 6.6 0 10 0 C10.05410687 1.77049689 10.09284119 3.54146849 10.125 5.3125 C10.14820313 6.29863281 10.17140625 7.28476562 10.1953125 8.30078125 C10 11 10 11 8 14 C6.0546875 14.29296875 6.0546875 14.29296875 3.875 14.1875 C1.956875 14.0946875 1.956875 14.0946875 0 14 C0 9.38 0 4.76 0 0 Z " fill="#FEFEFE" transform="translate(0,19)"/>
<path d="M0 0 C2.97 0 5.94 0 9 0 C9 4.62 9 9.24 9 14 C6.03 14 3.06 14 0 14 C0 9.38 0 4.76 0 0 Z " fill="#FCFDFD" transform="translate(0,156)"/>
<path d="M0 0 C2.97 0 5.94 0 9 0 C9 4.62 9 9.24 9 14 C6.03 14 3.06 14 0 14 C0 9.38 0 4.76 0 0 Z " fill="#FEFEFE" transform="translate(207,115)"/>
<path d="M0 0 C2.97 0 5.94 0 9 0 C9 4.62 9 9.24 9 14 C6.03 14 3.06 14 0 14 C0 9.38 0 4.76 0 0 Z " fill="#EFEFEF" transform="translate(207,101)"/>
<path d="M0 0 C2.97 0 5.94 0 9 0 C9 4.62 9 9.24 9 14 C6.03 14 3.06 14 0 14 C0 9.38 0 4.76 0 0 Z " fill="#FEFEFE" transform="translate(207,60)"/>
<path d="M0 0 C2.97 0 5.94 0 9 0 C9 4.29 9 8.58 9 13 C5.7 13 2.4 13 -1 13 C-1.07654536 8.48382401 -1.10228696 4.40914783 0 0 Z " fill="#FEFEFE" transform="translate(207,143)"/>
<path d="M0 0 C13.53 0 27.06 0 41 0 C41 0.99 41 1.98 41 3 C27.47 3 13.94 3 0 3 C0 2.01 0 1.02 0 0 Z " fill="#F0F2F4" transform="translate(83,203)"/>
<path d="M0 0 C2.97 0 5.94 0 9 0 C9 4.29 9 8.58 9 13 C6.03 13 3.06 13 0 13 C0 8.71 0 4.42 0 0 Z " fill="#EFEFEF" transform="translate(207,184)"/>
<path d="M0 0 C2.97 0 5.94 0 9 0 C9 4.29 9 8.58 9 13 C6.03 13 3.06 13 0 13 C0 8.71 0 4.42 0 0 Z " fill="#FEFEFE" transform="translate(207,88)"/>
<path d="M0 0 C2.64 0 5.28 0 8 0 C8 4.62 8 9.24 8 14 C5.36 14 2.72 14 0 14 C0 9.38 0 4.76 0 0 Z " fill="#FDFDFD" transform="translate(0,129)"/>
<path d="M0 0 C2.64 0 5.28 0 8 0 C8 4.62 8 9.24 8 14 C5.36 14 2.72 14 0 14 C0 9.38 0 4.76 0 0 Z " fill="#FDFDFD" transform="translate(0,101)"/>
<path d="M0 0 C2.64 0 5.28 0 8 0 C8 4.62 8 9.24 8 14 C5.36 14 2.72 14 0 14 C0 9.38 0 4.76 0 0 Z " fill="#FDFDFD" transform="translate(0,74)"/>
<path d="M0 0 C2.64 0 5.28 0 8 0 C8 4.62 8 9.24 8 14 C5.36 14 2.72 14 0 14 C0 9.38 0 4.76 0 0 Z " fill="#FDFDFD" transform="translate(0,46)"/>
<path d="M0 0 C4.62 0 9.24 0 14 0 C14 0.99 14 1.98 14 3 C18.29 3 22.58 3 27 3 C27 3.33 27 3.66 27 4 C21.15111957 5.01894076 15.49080831 5.11798453 9.5625 5.0625 C8.64017578 5.05798828 7.71785156 5.05347656 6.76757812 5.04882812 C4.51164952 5.03713938 2.25586033 5.02075455 0 5 C0 3.35 0 1.7 0 0 Z " fill="#EBEEF0" transform="translate(14,0)"/>
<path d="M0 0 C8.58 0 17.16 0 26 0 C26 0.33 26 0.66 26 1 C22.04 1 18.08 1 14 1 C14 2.32 14 3.64 14 5 C9.71 5 5.42 5 1 5 C0.67 3.35 0.34 1.7 0 0 Z " fill="#D6E1EA" transform="translate(27,201)"/>
<path d="M0 0 C4.62 0 9.24 0 14 0 C14 1.65 14 3.3 14 5 C9.38 5 4.76 5 0 5 C0 3.35 0 1.7 0 0 Z " fill="#FEFEFE" transform="translate(0,0)"/>
<path d="M0 0 C4.29 0 8.58 0 13 0 C13.33 1.65 13.66 3.3 14 5 C9.38 5 4.76 5 0 5 C0 3.35 0 1.7 0 0 Z " fill="#FCFDFD" transform="translate(14,201)"/>
<path d="M0 0 C4.62 0 9.24 0 14 0 C14 1.32 14 2.64 14 4 C9.38 4 4.76 4 0 4 C0 2.68 0 1.36 0 0 Z " fill="#FEFEFE" transform="translate(179,202)"/>
<path d="M0 0 C4.62 0 9.24 0 14 0 C14 1.65 14 3.3 14 5 C11.69 5 9.38 5 7 5 C7 4.34 7 3.68 7 3 C4.69 3 2.38 3 0 3 C0 2.01 0 1.02 0 0 Z " fill="#EEEFEF" transform="translate(179,0)"/>
<path d="M0 0 C8.58 0 17.16 0 26 0 C26 0.99 26 1.98 26 3 C21.38 3 16.76 3 12 3 C12 2.34 12 1.68 12 1 C8.04 1 4.08 1 0 1 C0 0.67 0 0.34 0 0 Z " fill="#DDE6ED" transform="translate(98,203)"/>
<path d="M0 0 C0.495 0.99 0.495 0.99 1 2 C-0.918125 2.2165625 -0.918125 2.2165625 -2.875 2.4375 C-5.25692894 2.70642746 -6.84452691 2.92226346 -9 4 C-10.88838218 4.0162697 -12.7775581 3.96465645 -14.6640625 3.87890625 C-15.78554687 3.83056641 -16.90703125 3.78222656 -18.0625 3.73242188 C-19.8259375 3.64831055 -19.8259375 3.64831055 -21.625 3.5625 C-23.40003906 3.48418945 -23.40003906 3.48418945 -25.2109375 3.40429688 C-28.14087561 3.27433994 -31.07049673 3.13936472 -34 3 C-34 2.67 -34 2.34 -34 2 C-17.17 1.01 -17.17 1.01 0 0 Z " fill="#BBD2E7" transform="translate(202,199)"/>
<path d="M0 0 C1.32 0 2.64 0 4 0 C4.12873737 9.41213252 3.79822348 18.62087413 3 28 C2.67 28 2.34 28 2 28 C1.97494385 27.40050537 1.9498877 26.80101074 1.92407227 26.18334961 C1.80714227 23.43456676 1.68486053 20.68604625 1.5625 17.9375 C1.50352539 16.52307617 1.50352539 16.52307617 1.44335938 15.08007812 C1.21274604 9.98884522 0.8300873 5.02935244 0 0 Z " fill="#D3E1ED" transform="translate(202,5)"/>
<path d="M0 0 C3.3 0 6.6 0 10 0 C10 1.65 10 3.3 10 5 C7.03 5 4.06 5 1 5 C0.67 3.35 0.34 1.7 0 0 Z " fill="#EFEFEF" transform="translate(206,0)"/>
<path d="M0 0 C4.62 0 9.24 0 14 0 C14 0.99 14 1.98 14 3 C9.38 3 4.76 3 0 3 C0 2.01 0 1.02 0 0 Z " fill="#FAFCFD" transform="translate(69,203)"/>
<path d="M0 0 C4.62 0 9.24 0 14 0 C14 0.99 14 1.98 14 3 C9.38 3 4.76 3 0 3 C0 2.01 0 1.02 0 0 Z " fill="#FCFDFE" transform="translate(151,203)"/>
<path d="M0 0 C4.62 0 9.24 0 14 0 C14 0.99 14 1.98 14 3 C9.38 3 4.76 3 0 3 C0 2.01 0 1.02 0 0 Z " fill="#EDEEEF" transform="translate(55,203)"/>
<path d="M0 0 C4.62 0 9.24 0 14 0 C14 0.99 14 1.98 14 3 C9.38 3 4.76 3 0 3 C0 2.01 0 1.02 0 0 Z " fill="#FEFEFE" transform="translate(165,0)"/>
<path d="M0 0 C4.29 0 8.58 0 13 0 C13 0.99 13 1.98 13 3 C8.71 3 4.42 3 0 3 C0 2.01 0 1.02 0 0 Z " fill="#EBEDEE" transform="translate(138,203)"/>
<path d="M0 0 C4.29 0 8.58 0 13 0 C13 0.99 13 1.98 13 3 C8.71 3 4.42 3 0 3 C0 2.01 0 1.02 0 0 Z " fill="#FFFFFF" transform="translate(28,0)"/>
<path d="M0 0 C4.62 0 9.24 0 14 0 C14 0.99 14 1.98 14 3 C7.07 2.505 7.07 2.505 0 2 C0 1.34 0 0.68 0 0 Z " fill="#EFEFEF" transform="translate(151,0)"/>
<path d="M0 0 C0.33 0 0.66 0 1 0 C1 3.96 1 7.92 1 12 C3.97 12 6.94 12 10 12 C10 12.33 10 12.66 10 13 C8.37585622 13.19477739 6.75063577 13.38059458 5.125 13.5625 C4.22007812 13.66691406 3.31515625 13.77132812 2.3828125 13.87890625 C0 14 0 14 -2 13 C-1.84660156 12.43796875 -1.69320312 11.8759375 -1.53515625 11.296875 C-0.98639581 8.94161122 -0.68502401 6.65451896 -0.4375 4.25 C-0.35371094 3.45078125 -0.26992187 2.6515625 -0.18359375 1.828125 C-0.12300781 1.22484375 -0.06242188 0.6215625 0 0 Z " fill="#F6F6F7" transform="translate(206,185)"/>
<path d="M0 0 C0.33 0 0.66 0 1 0 C1 3.96 1 7.92 1 12 C3.97 12 6.94 12 10 12 C10 12.33 10 12.66 10 13 C8.35492782 13.19406478 6.70890406 13.38007935 5.0625 13.5625 C3.68771484 13.71912109 3.68771484 13.71912109 2.28515625 13.87890625 C1.53105469 13.91886719 0.77695313 13.95882812 0 14 C-0.33 13.67 -0.66 13.34 -1 13 C-0.90982004 10.80949979 -0.75333792 8.621534 -0.5625 6.4375 C-0.46066406 5.23996094 -0.35882813 4.04242188 -0.25390625 2.80859375 C-0.17011719 1.88175781 -0.08632812 0.95492188 0 0 Z " fill="#F4F5F6" transform="translate(206,20)"/>
<path d="M0 0 C0 0.66 0 1.32 0 2 C-0.99 2 -1.98 2 -3 2 C-3.25523438 2.59296875 -3.51046875 3.1859375 -3.7734375 3.796875 C-5.11816498 6.21224538 -6.49214367 7.51211706 -8.625 9.25 C-9.25664063 9.77078125 -9.88828125 10.2915625 -10.5390625 10.828125 C-11.02117188 11.21484375 -11.50328125 11.6015625 -12 12 C-10.65263662 9.06559801 -9.11433035 6.74926573 -7 4.3125 C-6.484375 3.71050781 -5.96875 3.10851563 -5.4375 2.48828125 C-3.63305698 0.62009432 -2.61553534 0 0 0 Z " fill="#F5A9CB" transform="translate(47,60)"/>
<path d="M0 0 C1.32 0 2.64 0 4 0 C4 4.62 4 9.24 4 14 C3.67 14 3.34 14 3 14 C2.92652344 12.98679687 2.92652344 12.98679687 2.8515625 11.953125 C2.77679688 11.06109375 2.70203125 10.1690625 2.625 9.25 C2.55539063 8.36828125 2.48578125 7.4865625 2.4140625 6.578125 C2.00149945 4.00933618 1.28839043 2.24158985 0 0 Z " fill="#EDEEEF" transform="translate(202,5)"/>
</svg>
